<svg width="8" height="9" viewBox="0 0 8 9" fill="none" xmlns="http://www.w3.org/2000/svg">
<path fill-rule="evenodd" clip-rule="evenodd" d="M0.0449153 0.702768C0.0101789 0.814506 0.103858 0.915771 0.220871 0.915771H1.84701C1.95747 0.915771 2.04701 1.00531 2.04701 1.11577V2.31613C2.04701 2.50621 2.28724 2.5891 2.40446 2.43946L3.53795 0.992439C3.57586 0.944044 3.63392 0.915771 3.6954 0.915771H6.17707C6.34612 0.915771 6.43892 1.11249 6.33142 1.24295L4.27336 3.74069C4.21829 3.80753 4.21249 3.90222 4.259 3.97528L6.62532 7.69237C6.71007 7.82551 6.61443 7.99977 6.4566 7.99977H4.1193C4.04848 7.99977 3.98294 7.96232 3.94699 7.90131L2.69826 5.78226C2.62772 5.66255 2.45961 5.64948 2.37141 5.75685L2.09246 6.09644C2.06308 6.13221 2.04701 6.17708 2.04701 6.22338V7.79977C2.04701 7.91023 1.95747 7.99977 1.84701 7.99977H0.000227917C0.000102036 7.99977 0 7.99987 0 8V8C0 8.55229 0.447715 9 1 9H7C7.55228 9 8 8.55229 8 8V1C8 0.447715 7.55228 0 7 0H1C0.551218 0 0.171484 0.295628 0.0449153 0.702768Z" fill="#55FFFF"/>
</svg>
